<mxfile host="app.diagrams.net" agent="Mozilla/5.0 (Macintosh; Intel Mac OS X 10_15_7) AppleWebKit/537.36 (KHTML, like Gecko) Chrome/138.0.0.0 Safari/537.36" version="24.8.4">
  <diagram name="Page-1" id="AoHrSHvutFHruE96zXki">
    <mxGraphModel dx="895" dy="659" grid="1" gridSize="10" guides="1" tooltips="1" connect="1" arrows="1" fold="1" page="1" pageScale="1" pageWidth="827" pageHeight="1169" math="0" shadow="0">
      <root>
        <mxCell id="0" />
        <mxCell id="1" parent="0" />
        <mxCell id="wSM_X8T7oFFZtxNjYqWQ-23" value="" style="rounded=0;whiteSpace=wrap;html=1;labelBackgroundColor=none;fillColor=light-dark(#FFFFFF,#000000);strokeColor=none;" parent="1" vertex="1">
          <mxGeometry x="40" y="200" width="600" height="80" as="geometry" />
        </mxCell>
        <mxCell id="wSM_X8T7oFFZtxNjYqWQ-28" value="" style="edgeStyle=orthogonalEdgeStyle;rounded=0;orthogonalLoop=1;jettySize=auto;html=1;labelBackgroundColor=none;fontColor=default;" parent="1" source="wSM_X8T7oFFZtxNjYqWQ-25" target="wSM_X8T7oFFZtxNjYqWQ-27" edge="1">
          <mxGeometry relative="1" as="geometry" />
        </mxCell>
        <mxCell id="wSM_X8T7oFFZtxNjYqWQ-25" value="AWS Services&lt;br&gt;(ELB, WAF)" style="rounded=0;whiteSpace=wrap;html=1;labelBackgroundColor=none;" parent="1" vertex="1">
          <mxGeometry x="49" y="210" width="101" height="60" as="geometry" />
        </mxCell>
        <mxCell id="wSM_X8T7oFFZtxNjYqWQ-32" value="" style="edgeStyle=orthogonalEdgeStyle;rounded=0;orthogonalLoop=1;jettySize=auto;html=1;" parent="1" source="wSM_X8T7oFFZtxNjYqWQ-27" target="wSM_X8T7oFFZtxNjYqWQ-31" edge="1">
          <mxGeometry relative="1" as="geometry" />
        </mxCell>
        <mxCell id="wSM_X8T7oFFZtxNjYqWQ-27" value="Amazon S3&lt;br&gt;Bucket" style="rounded=0;whiteSpace=wrap;html=1;labelBackgroundColor=none;" parent="1" vertex="1">
          <mxGeometry x="210" y="210" width="100" height="60" as="geometry" />
        </mxCell>
        <mxCell id="wSM_X8T7oFFZtxNjYqWQ-34" value="" style="edgeStyle=orthogonalEdgeStyle;rounded=0;orthogonalLoop=1;jettySize=auto;html=1;" parent="1" source="wSM_X8T7oFFZtxNjYqWQ-31" target="wSM_X8T7oFFZtxNjYqWQ-33" edge="1">
          <mxGeometry relative="1" as="geometry" />
        </mxCell>
        <mxCell id="wSM_X8T7oFFZtxNjYqWQ-31" value="AWS Lambda&lt;br&gt;Function" style="rounded=0;whiteSpace=wrap;html=1;labelBackgroundColor=none;" parent="1" vertex="1">
          <mxGeometry x="370" y="210" width="100" height="60" as="geometry" />
        </mxCell>
        <mxCell id="wSM_X8T7oFFZtxNjYqWQ-33" value="CubeAPM" style="rounded=0;whiteSpace=wrap;html=1;labelBackgroundColor=none;" parent="1" vertex="1">
          <mxGeometry x="530" y="210" width="100" height="60" as="geometry" />
        </mxCell>
      </root>
    </mxGraphModel>
  </diagram>
</mxfile>
